<svg width="18" height="18" viewBox="0 0 18 18" fill="none" xmlns="http://www.w3.org/2000/svg">
    <g clip-path="url(#6g670sv4ka)">
        <path d="M5.273.063C4.315.108 3.66.26 3.089.486c-.591.23-1.093.54-1.592 1.04A4.409 4.409 0 0 0 .462 3.122C.24 3.694.09 4.349.048 5.306c-.042.958-.052 1.266-.047 3.71.005 2.444.016 2.75.062 3.71.046.958.198 1.612.423 2.184a4.41 4.41 0 0 0 1.04 1.592c.502.499 1.003.806 1.597 1.035.572.221 1.227.372 2.185.414.958.042 1.266.051 3.71.047 2.443-.005 2.75-.016 3.71-.061.96-.046 1.61-.2 2.183-.423a4.412 4.412 0 0 0 1.592-1.04 4.413 4.413 0 0 0 1.035-1.597c.221-.572.372-1.227.414-2.184.041-.96.051-1.268.047-3.711-.005-2.444-.016-2.75-.061-3.71-.046-.96-.198-1.612-.423-2.184a4.418 4.418 0 0 0-1.04-1.592c-.501-.5-1.004-.806-1.597-1.035-.572-.221-1.227-.372-2.185-.414-.958-.041-1.266-.052-3.71-.047-2.444.005-2.75.015-3.71.062zm.105 16.27c-.878-.038-1.354-.184-1.672-.306a2.803 2.803 0 0 1-1.036-.671 2.772 2.772 0 0 1-.675-1.034c-.124-.317-.272-.793-.313-1.67-.045-.95-.054-1.234-.06-3.637-.005-2.403.005-2.687.046-3.636.038-.877.184-1.354.306-1.671.162-.421.357-.72.671-1.036a2.778 2.778 0 0 1 1.034-.676c.317-.123.793-.27 1.67-.312.95-.045 1.234-.054 3.636-.06 2.403-.005 2.688.004 3.638.046.876.038 1.354.183 1.67.306.421.162.72.357 1.037.671.316.315.51.613.675 1.034.124.317.271.792.313 1.67.045.95.055 1.234.06 3.636.004 2.402-.005 2.688-.046 3.636-.039.878-.184 1.354-.306 1.672a2.79 2.79 0 0 1-.672 1.036 2.78 2.78 0 0 1-1.034.675c-.316.124-.793.271-1.67.313-.948.045-1.233.054-3.636.06-2.403.005-2.687-.005-3.636-.046M12.715 4.19a1.08 1.08 0 1 0 2.158-.003 1.08 1.08 0 0 0-2.158.003zM4.379 9.009a4.62 4.62 0 1 0 9.242-.018 4.62 4.62 0 0 0-9.242.018zM6 9.006a3 3 0 1 1 6-.012 3 3 0 0 1-6 .012z" fill="#fff"/>
    </g>
    <defs>
        <clipPath id="6g670sv4ka">
            <path fill="#fff" d="M0 0h18v18H0z"/>
        </clipPath>
    </defs>
</svg>
