<svg width="20" height="20" viewBox="0 0 20 20" fill="none" xmlns="http://www.w3.org/2000/svg">
<path d="M4.16667 17.5C3.70833 17.5 3.31583 17.3369 2.98917 17.0108C2.66306 16.6842 2.5 16.2917 2.5 15.8333V4.16667C2.5 3.70833 2.66306 3.31583 2.98917 2.98917C3.31583 2.66306 3.70833 2.5 4.16667 2.5H9.16667C9.40278 2.5 9.60083 2.57972 9.76083 2.73917C9.92028 2.89917 10 3.09722 10 3.33333C10 3.56944 9.92028 3.76722 9.76083 3.92667C9.60083 4.08667 9.40278 4.16667 9.16667 4.16667H4.16667V15.8333H15.8333V10.8333C15.8333 10.5972 15.9133 10.3992 16.0733 10.2392C16.2328 10.0797 16.4306 10 16.6667 10C16.9028 10 17.1006 10.0797 17.26 10.2392C17.42 10.3992 17.5 10.5972 17.5 10.8333V15.8333C17.5 16.2917 17.3369 16.6842 17.0108 17.0108C16.6842 17.3369 16.2917 17.5 15.8333 17.5H4.16667ZM7.5 12.5C7.34722 12.3472 7.27083 12.1528 7.27083 11.9167C7.27083 11.6806 7.34722 11.4861 7.5 11.3333L14.6667 4.16667H12.5C12.2639 4.16667 12.0661 4.08667 11.9067 3.92667C11.7467 3.76722 11.6667 3.56944 11.6667 3.33333C11.6667 3.09722 11.7467 2.89917 11.9067 2.73917C12.0661 2.57972 12.2639 2.5 12.5 2.5H16.6667C16.9028 2.5 17.1006 2.57972 17.26 2.73917C17.42 2.89917 17.5 3.09722 17.5 3.33333V7.5C17.5 7.73611 17.42 7.93389 17.26 8.09333C17.1006 8.25333 16.9028 8.33333 16.6667 8.33333C16.4306 8.33333 16.2328 8.25333 16.0733 8.09333C15.9133 7.93389 15.8333 7.73611 15.8333 7.5V5.33333L8.64583 12.5208C8.49306 12.6736 8.30556 12.75 8.08333 12.75C7.86111 12.75 7.66667 12.6667 7.5 12.5Z" fill="#F5507D"/>
</svg>
