<svg width="134" height="21" viewBox="0 0 134 21" fill="none" xmlns="http://www.w3.org/2000/svg">
    <g clip-path="url(#96fwvulwva)">
        <path d="M75.472 12.81c-1.078 0-1.851.753-1.851 1.851 0 1.079.773 1.852 1.85 1.852 1.1 0 1.852-.774 1.852-1.852 0-1.098-.752-1.85-1.851-1.85zM82.325 1.275h-3.194v11.311c0 .753 0 1.282.04 1.81.082 1.425.978 2.015 2.503 2.015.712 0 1.302-.04 1.912-.102v-2.177c-.955.041-1.18-.122-1.24-.61-.021-.285-.021-.529-.021-.997V1.275zM86.72 1.194c-1.017 0-1.689.63-1.689 1.607 0 .997.671 1.627 1.689 1.627 1.017 0 1.709-.63 1.709-1.627 0-.977-.692-1.607-1.709-1.607zm1.607 15.034V5.385h-3.194v10.843h3.194zM101.212 8.09c-.244-1.892-1.567-2.99-3.845-2.99-1.018 0-1.79.203-2.523.692l-.895 1.302v-1.71h-3.194v10.844h3.194v-5.025c0-2.767.936-3.906 2.197-3.906 1.24 0 1.852.692 1.933 1.79.04.55.04 1.099.04 1.506v5.635h3.194v-6.124c0-.874-.02-1.464-.101-2.014zM107.617 12.078l3.153 4.15h3.967l-4.76-5.839 4.699-5.004h-3.784l-4.109 4.76v-8.87h-3.194v14.953h3.194v-3.235l.834-.915z" fill="red"/>
        <path d="M6.795 5.1c-1.099 0-2.177.244-2.787.712l-.814 1.2V5.385H0v14.83h3.194v-5.411l.712 1.14c.55.345 1.627.569 2.522.569 2.788 0 5.168-2.035 5.168-5.94 0-3.194-1.81-5.473-4.801-5.473zm-1.12 9.216c-1.22 0-2.481-.814-2.481-3.154v-.488c0-2.482 1.119-3.377 2.584-3.377 1.505 0 2.542 1.343 2.542 3.479 0 2.36-1.098 3.54-2.644 3.54zM14.917 1.194c-1.017 0-1.688.63-1.688 1.607 0 .997.671 1.628 1.688 1.628s1.71-.631 1.71-1.628c0-.976-.693-1.607-1.71-1.607zm1.607 15.034V5.385H13.33v10.843h3.194zM23.835 5.1c-3.072 0-5.554 2.075-5.554 5.798 0 3.682 2.279 5.615 5.29 5.615 2.827 0 4.902-1.404 5.33-4.13h-3.154c-.244 1.261-1.017 1.933-1.993 1.933-1.323 0-2.197-1.099-2.197-3.622 0-2.298.854-3.397 2.197-3.397 1.058 0 1.81.61 2.034 2.096h3.113C28.738 6.972 26.866 5.1 23.835 5.1zM34.642 12.078l3.154 4.15h3.967l-4.76-5.839 4.699-5.004h-3.784l-4.11 4.76v-8.87h-3.194v14.953h3.194v-3.235l.834-.915zM59.634 7.806C59.39 6.32 58.189 5.1 56.074 5.1c-.977 0-1.689.204-2.32.63l-1.098 1.465c-.448-1.2-1.566-2.095-3.377-2.095-.997 0-1.689.204-2.34.63l-.813 1.343V5.385h-3.194v10.843h3.194v-5.635c0-2.218.59-3.296 1.81-3.296 1.038 0 1.587.61 1.73 1.689.06.549.08 1.139.08 1.647v5.595h3.174v-5.635c0-2.218.61-3.296 1.831-3.296 1.017 0 1.587.61 1.71 1.689.06.549.08 1.139.08 1.647v5.595h3.194V9.82c0-.875-.02-1.465-.101-2.014zM72.806 5.385h-3.48l-2.46 8.381-2.483-8.381h-3.56l4.456 11.331-.143.346c-.407.936-1.017 1.261-1.932 1.261-.326 0-.61 0-.896-.04v2.136c.448.06.834.08 1.384.08 2.36 0 3.54-.894 4.78-4.047l4.334-11.067zM128.104 2.722a2.499 2.499 0 0 1 2.501 2.5v3.89a2.495 2.495 0 0 1-.733 1.768 2.498 2.498 0 0 1-1.768.732h-3.888a2.503 2.503 0 0 1-2.359-1.667h6.247a.834.834 0 0 0 .834-.833v-3.89a.835.835 0 0 0-.834-.833h-3.888a.834.834 0 0 0-.834.834v.833h-1.667v-.833a2.504 2.504 0 0 1 2.501-2.5h3.888z" fill="#fff"/>
        <path d="M118.003 7.9a2.5 2.5 0 0 1 1.768-.733h3.889a2.502 2.502 0 0 1 2.358 1.667h-6.247a.835.835 0 0 0-.833.833v3.89a.834.834 0 0 0 .833.833h3.889a.832.832 0 0 0 .833-.833v-.834h1.667v.834a2.504 2.504 0 0 1-2.5 2.5h-3.889a2.5 2.5 0 0 1-2.5-2.5v-3.89c0-.663.263-1.299.732-1.768z" fill="red"/>
    </g>
    <defs>
        <clipPath id="96fwvulwva">
            <path fill="#fff" transform="translate(0 .5)" d="M0 0h133.125v20H0z"/>
        </clipPath>
    </defs>
</svg>
