<svg width="173" height="26" viewBox="0 0 173 26" fill="none" xmlns="http://www.w3.org/2000/svg">
    <g clip-path="url(#obtfh36xwa)">
        <path d="M98.078 16.003c-1.401 0-2.406.979-2.406 2.407 0 1.401 1.005 2.406 2.406 2.406 1.427 0 2.405-1.005 2.405-2.406 0-1.428-.978-2.407-2.405-2.407zM106.984 1.008h-4.15v14.704c0 .979 0 1.666.053 2.354.105 1.851 1.269 2.618 3.252 2.618.925 0 1.692-.053 2.484-.132v-2.83c-1.241.053-1.532-.159-1.612-.793-.027-.37-.027-.688-.027-1.296V1.008zM112.695.902c-1.323 0-2.195.82-2.195 2.09 0 1.295.872 2.115 2.195 2.115 1.321 0 2.22-.82 2.22-2.116 0-1.269-.899-2.089-2.22-2.089zm2.088 19.544V6.35h-4.151v14.096h4.151zM131.528 9.867c-.317-2.459-2.036-3.887-4.996-3.887-1.322 0-2.327.264-3.278.899l-1.163 1.693V6.35h-4.152v14.096h4.152v-6.532c0-3.597 1.216-5.078 2.855-5.078 1.612 0 2.405.9 2.511 2.327.053.714.053 1.428.053 1.957v7.326h4.15v-7.96c0-1.138-.026-1.904-.132-2.619zM139.852 15.051l4.097 5.395h5.156l-6.186-7.59 6.107-6.506h-4.917l-5.341 6.189V1.008h-4.151v19.438h4.151v-4.205l1.084-1.19z" fill="red"/>
        <path d="M8.83 5.98c-1.428 0-2.829.317-3.622.926l-1.057 1.56V6.35H0v19.28h4.15v-7.035l.926 1.481c.714.45 2.115.74 3.278.74 3.622 0 6.715-2.644 6.715-7.722 0-4.152-2.353-7.114-6.24-7.114zM7.376 17.96c-1.586 0-3.225-1.058-3.225-4.099v-.635c0-3.226 1.454-4.39 3.357-4.39 1.956 0 3.305 1.746 3.305 4.523 0 3.067-1.428 4.601-3.437 4.601zM19.386.902c-1.322 0-2.195.82-2.195 2.09 0 1.295.873 2.115 2.195 2.115 1.321 0 2.22-.82 2.22-2.115 0-1.27-.899-2.09-2.22-2.09zm2.088 19.544V6.35h-4.15v14.096h4.15zM30.975 5.98c-3.992 0-7.217 2.698-7.217 7.537 0 4.787 2.96 7.3 6.873 7.3 3.675 0 6.372-1.825 6.927-5.37H33.46c-.317 1.64-1.322 2.513-2.59 2.513-1.72 0-2.856-1.428-2.856-4.707 0-2.989 1.11-4.417 2.855-4.417 1.375 0 2.353.794 2.644 2.724h4.045c-.212-3.147-2.644-5.58-6.583-5.58zM45.02 15.051l4.097 5.395h5.156l-6.187-7.59 6.107-6.506h-4.917l-5.34 6.189V1.009h-4.15v19.437h4.15v-4.205l1.084-1.19zM77.496 9.498c-.317-1.931-1.877-3.518-4.627-3.518-1.269 0-2.194.265-3.014.82l-1.427 1.904c-.582-1.56-2.036-2.724-4.389-2.724-1.295 0-2.194.265-3.04.82l-1.057 1.745V6.35H55.79v14.096h4.15v-7.325c0-2.883.767-4.285 2.353-4.285 1.349 0 2.063.794 2.248 2.195.079.714.105 1.481.105 2.143v7.272h4.124v-7.325c0-2.883.794-4.285 2.38-4.285 1.322 0 2.062.794 2.22 2.195.08.714.106 1.481.106 2.143v7.272h4.15v-8.33c0-1.138-.026-1.905-.131-2.618zM94.612 6.35h-4.52l-3.199 10.896L83.667 6.35h-4.626l5.79 14.731-.185.45c-.529 1.216-1.323 1.64-2.511 1.64-.424 0-.794 0-1.164-.054v2.777c.582.08 1.084.106 1.798.106 3.067 0 4.6-1.164 6.212-5.263L94.612 6.35zM166.475 2.89a3.249 3.249 0 0 1 3.25 3.25v5.055a3.258 3.258 0 0 1-2.006 3.003 3.25 3.25 0 0 1-1.244.248h-5.053a3.249 3.249 0 0 1-3.065-2.167h8.118a1.081 1.081 0 0 0 1.084-1.084V6.14a1.085 1.085 0 0 0-1.084-1.083h-5.053c-.598 0-1.084.485-1.084 1.083v1.084h-2.166V6.139a3.253 3.253 0 0 1 3.25-3.25h5.053z" fill="#0F0F0F"/>
        <path d="M153.348 9.62a3.25 3.25 0 0 1 2.297-.953h5.055a3.25 3.25 0 0 1 3.063 2.167h-8.118a1.083 1.083 0 0 0-1.082 1.084v5.056a1.083 1.083 0 0 0 1.082 1.083h5.055a1.083 1.083 0 0 0 1.082-1.083V15.89h2.167v1.084a3.253 3.253 0 0 1-3.249 3.25h-5.055a3.25 3.25 0 0 1-3.249-3.25v-5.056c0-.862.342-1.69.952-2.299z" fill="red"/>
    </g>
    <defs>
        <clipPath id="obtfh36xwa">
            <path fill="#fff" d="M0 0h173v26H0z"/>
        </clipPath>
    </defs>
</svg>
