<svg width="24" height="25" viewBox="0 0 24 25" fill="none" xmlns="http://www.w3.org/2000/svg">
    <path d="M19.5.5A4.5 4.5 0 0 1 24 5v7a4.502 4.502 0 0 1-4.5 4.5h-7a4.5 4.5 0 0 1-4.244-3h11.243A1.5 1.5 0 0 0 21 12V5a1.5 1.5 0 0 0-1.5-1.5h-7c-.828 0-1.5.672-1.5 1.5v1.5H8V5A4.501 4.501 0 0 1 12.5.5h7z" fill="#fff"/>
    <path d="M1.317 9.818A4.502 4.502 0 0 1 4.5 8.5h7a4.5 4.5 0 0 1 4.243 3H4.5A1.5 1.5 0 0 0 3 13v7a1.5 1.5 0 0 0 1.5 1.5h7A1.503 1.503 0 0 0 13 20v-1.5h3V20a4.501 4.501 0 0 1-4.5 4.5h-7A4.503 4.503 0 0 1 0 20v-7a4.5 4.5 0 0 1 1.317-3.182z" fill="#D73C69"/>
</svg>
