<svg width="130" height="130" viewBox="0 0 130 130" fill="none" xmlns="http://www.w3.org/2000/svg">
<circle cx="65" cy="65" r="65" fill="#0F0F0F"/>
<path d="M68.8337 58C69.4968 58 70.1331 58.2634 70.6018 58.7323C71.0706 59.2012 71.3343 59.8371 71.3343 60.5002V64.3894C71.3343 64.7177 71.2693 65.0428 71.1437 65.3462C71.0181 65.6495 70.8343 65.9251 70.6018 66.1572C70.37 66.3894 70.0943 66.5736 69.7906 66.6992C69.4875 66.8249 69.1625 66.8896 68.8337 66.8896H64.945C64.4275 66.8897 63.9231 66.7295 63.5006 66.431C63.0787 66.1325 62.7593 65.7104 62.5868 65.2227H68.8337C69.055 65.2227 69.2668 65.135 69.4231 64.9787C69.5793 64.8224 69.6675 64.6104 69.6675 64.3894V60.5002C69.6675 60.2792 69.5793 60.0672 69.4231 59.9109C69.2668 59.7546 69.055 59.6668 68.8337 59.6668H64.945C64.485 59.6668 64.1112 60.0401 64.1112 60.5002V61.3336L62.4443 61.3336V60.5002C62.4443 59.8371 62.7081 59.2012 63.1768 58.7323C63.6456 58.2634 64.2818 58 64.945 58H68.8337Z" fill="white"/>
<path d="M58.7319 63.1776C59.2013 62.7087 59.8369 62.4453 60.5 62.4453H64.3894C64.9063 62.4451 65.4106 62.6054 65.8331 62.9039C66.2556 63.2024 66.575 63.6245 66.7469 64.1121H60.5C60.2787 64.1121 60.0669 64.1999 59.9106 64.3562C59.7544 64.5125 59.6669 64.7244 59.6669 64.9455V68.8347C59.6669 69.0557 59.7544 69.2677 59.9106 69.424C60.0669 69.5803 60.2787 69.6681 60.5 69.6681H64.3894C64.61 69.6681 64.8219 69.5803 64.9788 69.424C65.135 69.2677 65.2225 69.0557 65.2225 68.8347V68.0013H66.8894V68.8347C66.8894 69.4978 66.6256 70.1337 66.1569 70.6026C65.6881 71.0714 65.0525 71.3349 64.3894 71.3349H60.5C59.8369 71.3349 59.2013 71.0714 58.7319 70.6026C58.2631 70.1337 58 69.4978 58 68.8347V64.9455C58 64.2824 58.2631 63.6464 58.7319 63.1776Z" fill="white"/>
<path d="M25.1307 50.0261C24.7994 50.7631 24.3363 51.3443 23.7415 51.7698C23.1427 52.1848 22.474 52.4236 21.7353 52.4862C20.9927 52.5382 20.2346 52.3904 19.4612 52.0426C18.6878 51.6949 18.0777 51.2277 17.6311 50.6409C17.1804 50.0436 16.9152 49.3849 16.8354 48.6648C16.7483 47.9415 16.8705 47.2114 17.2018 46.4745C17.4249 45.9783 17.726 45.5523 18.1053 45.1966C18.4772 44.8375 18.8955 44.5607 19.3602 44.3661C19.8281 44.1642 20.311 44.0656 20.8089 44.0702L20.758 45.4419C20.4217 45.4486 20.0968 45.5174 19.7836 45.6485C19.4662 45.769 19.1852 45.9453 18.9406 46.1773C18.6959 46.4094 18.503 46.6823 18.3619 46.9961C18.1454 47.4776 18.0723 47.9622 18.1425 48.4499C18.216 48.9303 18.4151 49.3751 18.7399 49.7842C19.0606 50.1828 19.4946 50.5051 20.0419 50.7512C20.5891 50.9972 21.1219 51.1096 21.6402 51.0882C22.1618 51.0596 22.6283 50.9097 23.0397 50.6386C23.4543 50.3601 23.7715 49.9764 23.9913 49.4876C24.1357 49.1665 24.2082 48.8395 24.2088 48.5065C24.2054 48.1628 24.1398 47.8307 24.012 47.5102C23.8875 47.1823 23.7052 46.8854 23.4651 46.6196L24.4573 45.671C24.8058 46.047 25.0724 46.4782 25.2572 46.9648C25.4346 47.448 25.5145 47.9532 25.4968 48.4803C25.4791 49.0074 25.357 49.5227 25.1307 50.0261Z" fill="white"/>
<path d="M25.2176 43.0222L24.1577 42.2976L25.1532 40.8414C25.3067 40.6168 25.3926 40.3848 25.4109 40.1454C25.4337 39.8994 25.3954 39.6648 25.2959 39.4418C25.201 39.2121 25.0445 39.0228 24.8266 38.8738C24.4964 38.6481 24.1443 38.5818 23.7705 38.6751C23.3966 38.7684 23.081 39.0033 22.8236 39.3797L21.8891 40.7468L20.839 40.0289L21.7907 38.6155C22.1092 38.1354 22.4884 37.7793 22.9282 37.547C23.3614 37.3101 23.8131 37.2022 24.2833 37.2232C24.7535 37.2442 25.2032 37.4015 25.6325 37.6949C26.0618 37.9884 26.367 38.357 26.5482 38.8006C26.734 39.2377 26.7939 39.7099 26.7281 40.2173C26.6557 40.7202 26.457 41.2094 26.1319 41.6849L25.2176 43.0222ZM27.0624 45.8096L20.1279 41.0691L20.9135 39.92L27.848 44.6605L27.0624 45.8096ZM29.69 41.9659L25.766 41.6673L25.7613 40.3558L30.5772 40.6682L29.69 41.9659Z" fill="white"/>
<path d="M31.5837 39.532L25.537 33.7012L26.5033 32.6992L32.5499 38.53L31.5837 39.532ZM32.35 38.7373L31.4344 37.8544L34.2831 34.9002L35.1988 35.7831L32.35 38.7373ZM29.724 36.2051L28.8257 35.3388L31.3413 32.7301L32.2396 33.5964L29.724 36.2051ZM27.219 33.7895L26.3034 32.9065L29.1272 29.9782L30.0428 30.8612L27.219 33.7895Z" fill="white"/>
<path d="M41.236 31.1229L33.6455 26.2571L34.7712 25.4382L42.4296 30.2546L41.236 31.1229ZM35.8114 35.0688L33.5776 26.3065L34.713 25.4806L37.005 34.2006L35.8114 35.0688ZM35.8685 32.475L35.1414 31.4755L39.2075 28.5178L39.9345 29.5173L35.8685 32.475Z" fill="white"/>
<path d="M44.9289 29.0663L41.5109 22.162L42.7583 21.5444L46.1764 28.4487L44.9289 29.0663ZM39.4542 23.8229L38.8899 22.683L44.7617 19.776L45.3261 20.916L39.4542 23.8229Z" fill="white"/>
<path d="M49.4915 26.9627L46.9892 18.9441L48.318 18.5294L50.8203 26.548L49.4915 26.9627ZM50.5454 26.6338L50.1665 25.4195L54.0841 24.197L54.4631 25.4112L50.5454 26.6338ZM49.4586 23.1514L49.0869 21.9601L52.5463 20.8805L52.9181 22.0718L49.4586 23.1514ZM48.422 19.8294L48.043 18.6152L51.9263 17.4033L52.3053 18.6176L48.422 19.8294Z" fill="white"/>
<path d="M62.1426 20.8167L60.8321 20.5038L63.2065 15.8053L64.7982 15.6885L62.1426 20.8167ZM61.045 24.3867L60.7498 20.3655L62.1381 20.2636L62.4333 24.2847L61.045 24.3867ZM60.8261 20.9134L57.45 16.228L59.0417 16.1111L62.0768 20.4124L60.8261 20.9134Z" fill="white"/>
<path d="M70.1493 24.6496C69.3229 24.5536 68.613 24.286 68.0198 23.8466C67.4265 23.4072 66.9849 22.8405 66.6951 22.1464C66.4132 21.4532 66.3211 20.6855 66.419 19.8431C66.5168 19.0008 66.7819 18.2786 67.2143 17.6764C67.6555 17.0673 68.2112 16.6164 68.8815 16.3237C69.5526 16.0232 70.2974 15.9204 71.1159 16.0155C71.9424 16.1115 72.6478 16.3827 73.2322 16.8291C73.8255 17.2685 74.2591 17.8343 74.5331 18.5265C74.8159 19.2117 74.9084 19.9755 74.8106 20.8178C74.7127 21.6602 74.4472 22.3864 74.0139 22.9965C73.5885 23.6075 73.0408 24.0593 72.3705 24.3519C71.7082 24.6455 70.9678 24.7447 70.1493 24.6496ZM70.2961 23.3861C70.8365 23.4489 71.3285 23.3731 71.7722 23.1589C72.2159 22.9447 72.5792 22.6244 72.8623 22.1983C73.1542 21.765 73.3348 21.2504 73.404 20.6544C73.4723 20.0664 73.414 19.5281 73.2292 19.0395C73.0443 18.5509 72.7561 18.155 72.3644 17.8518C71.9817 17.5416 71.5161 17.3546 70.9678 17.2909C70.4274 17.2282 69.9314 17.3034 69.4798 17.5167C69.0371 17.723 68.6657 18.0423 68.3659 18.4746C68.0749 18.8999 67.8947 19.4105 67.8255 20.0065C67.7563 20.6025 67.8141 21.1448 67.999 21.6334C68.1927 22.115 68.4849 22.5113 68.8756 22.8225C69.2743 23.1346 69.7478 23.3224 70.2961 23.3861Z" fill="white"/>
<path d="M78.4884 26.4775C77.8568 26.2725 77.3421 25.9667 76.9442 25.56C76.5564 25.1482 76.3046 24.667 76.189 24.1164C76.0809 23.5682 76.1269 22.986 76.3269 22.3696L77.6509 22.7993C77.5299 23.1722 77.4998 23.5241 77.5606 23.855C77.6315 24.1808 77.7818 24.4693 78.0115 24.7205C78.2436 24.964 78.5423 25.1451 78.9076 25.2636C79.2804 25.3846 79.6323 25.4147 79.9633 25.3539C80.3043 25.2879 80.5953 25.1427 80.8364 24.9181C81.08 24.686 81.2623 24.3835 81.3833 24.0106L82.7073 24.4403C82.5073 25.0567 82.1988 25.5537 81.7818 25.9315C81.3724 26.3117 80.8823 26.5521 80.3113 26.6528C79.7504 26.7483 79.1428 26.6899 78.4884 26.4775ZM76.3269 22.3696L77.9716 17.3018L79.2956 17.7315L77.6509 22.7993L76.3269 22.3696ZM81.3833 24.0106L83.028 18.9428L84.352 19.3725L82.7073 24.4403L81.3833 24.0106Z" fill="white"/>
<path d="M85.904 25.9427L86.5117 24.8116L88.0656 25.6465C88.3052 25.7753 88.545 25.836 88.785 25.8287C89.0321 25.8252 89.2613 25.7622 89.4725 25.6395C89.6907 25.5207 89.8623 25.345 89.9872 25.1124C90.1766 24.76 90.2049 24.4029 90.0724 24.0411C89.9399 23.6793 89.6727 23.3905 89.271 23.1747L87.8123 22.3909L88.4143 21.2704L89.921 22.0663C90.4322 22.3319 90.8267 22.6709 91.1045 23.0836C91.3861 23.4891 91.5415 23.9268 91.5706 24.3965C91.5998 24.8663 91.4913 25.3302 91.2452 25.7882C90.9991 26.2463 90.6651 26.5891 90.2432 26.8165C89.8284 27.0477 89.3652 27.1576 88.8537 27.1461C88.346 27.1276 87.8385 26.9821 87.3311 26.7095L85.904 25.9427ZM83.3287 28.0737L87.3043 20.6741L88.5306 21.3329L84.555 28.7325L83.3287 28.0737ZM87.4303 30.2773L87.3096 26.3437L88.6131 26.1995L88.8151 31.0213L87.4303 30.2773Z" fill="white"/>
<path d="M91.9438 33.3099L97.4133 26.9346L98.4698 27.8409L93.0003 34.2163L91.9438 33.3099ZM92.6816 33.9428L93.5098 32.9774L96.7157 35.7278L95.8875 36.6932L92.6816 33.9428Z" fill="white"/>
<path d="M96.9057 37.8519L103.078 32.1543L104.022 33.1771L97.8499 38.8747L96.9057 37.8519Z" fill="white"/>
<path d="M102.535 45.0568L105.654 36.1317L106.919 36.615L103.813 45.5165L102.535 45.0568ZM99.1851 40.195L106.102 35.4292L106.919 36.615L105.904 37.2563L99.9749 41.3413L99.1851 40.195ZM102.535 45.0568L109.452 40.2909L110.242 41.4372L103.325 46.2031L102.535 45.0568Z" fill="white"/>
<path d="M106.723 47.6234L108.083 46.7224L113.745 48.7385L114.466 50.3747L106.723 47.6234ZM104.157 47.8103L111.843 44.4229L112.395 45.6748L104.708 49.0621L104.157 47.8103ZM106.145 52.3235L108.69 47.5041L109.866 48.061L106.837 53.8938L106.145 52.3235Z" fill="white"/>
<path d="M104.86 79.187C105.192 78.45 105.655 77.8688 106.25 77.4433C106.848 77.0284 107.517 76.7896 108.256 76.727C108.998 76.6749 109.756 76.8228 110.53 77.1705C111.303 77.5182 111.913 77.9855 112.36 78.5722C112.811 79.1696 113.076 79.8283 113.156 80.5483C113.243 81.2716 113.121 82.0017 112.789 82.7387C112.566 83.2348 112.265 83.6608 111.886 84.0166C111.514 84.3756 111.096 84.6524 110.631 84.847C110.163 85.0489 109.68 85.1475 109.182 85.143L109.233 83.7712C109.569 83.7646 109.894 83.6957 110.208 83.5646C110.525 83.4442 110.806 83.2679 111.051 83.0358C111.295 82.8037 111.488 82.5308 111.629 82.2171C111.846 81.7355 111.919 81.2509 111.849 80.7632C111.775 80.2828 111.576 79.8381 111.251 79.4289C110.931 79.0303 110.497 78.708 109.949 78.462C109.402 78.2159 108.869 78.1036 108.351 78.1249C107.829 78.1535 107.363 78.3034 106.951 78.5746C106.537 78.853 106.22 79.2367 106 79.7256C105.855 80.0466 105.783 80.3736 105.782 80.7067C105.786 81.0503 105.851 81.3824 105.979 81.703C106.104 82.0309 106.286 82.3277 106.526 82.5936L105.534 83.5421C105.185 83.1661 104.919 82.7349 104.734 82.2484C104.557 81.7651 104.477 81.2599 104.494 80.7328C104.512 80.2057 104.634 79.6904 104.86 79.187Z" fill="white"/>
<path d="M104.773 86.1909L105.833 86.9155L104.838 88.3718C104.684 88.5963 104.599 88.8283 104.58 89.0677C104.557 89.3138 104.596 89.5483 104.695 89.7714C104.79 90.001 104.947 90.1903 105.165 90.3393C105.495 90.5651 105.847 90.6313 106.221 90.538C106.595 90.4447 106.91 90.2099 107.167 89.8334L108.102 88.4663L109.152 89.1842L108.2 90.5977C107.882 91.0777 107.503 91.4339 107.063 91.6662C106.63 91.903 106.178 92.0109 105.708 91.9899C105.238 91.9689 104.788 91.8117 104.359 91.5182C103.929 91.2247 103.624 90.8562 103.443 90.4125C103.257 89.9754 103.197 89.5032 103.263 88.9958C103.335 88.493 103.534 88.0038 103.859 87.5283L104.773 86.1909ZM102.929 83.4035L109.863 88.144L109.078 89.2932L102.143 84.5526L102.929 83.4035ZM100.301 87.2472L104.225 87.5458L104.23 88.8573L99.4139 88.5449L100.301 87.2472Z" fill="white"/>
<path d="M98.4075 89.6811L104.454 95.5119L103.488 96.5139L97.4412 90.6831L98.4075 89.6811ZM97.6411 90.4758L98.5568 91.3588L95.708 94.313L94.7924 93.43L97.6411 90.4758ZM100.267 93.008L101.165 93.8743L98.6499 96.483L97.7515 95.6167L100.267 93.008ZM102.772 95.4237L103.688 96.3066L100.864 99.2349L99.9483 98.352L102.772 95.4237Z" fill="white"/>
<path d="M88.7551 98.0903L96.3456 102.956L95.2199 103.775L87.5615 98.9585L88.7551 98.0903ZM94.1797 94.1443L96.4136 102.907L95.2782 103.733L92.9861 95.0125L94.1797 94.1443ZM94.1226 96.7381L94.8497 97.7377L90.7837 100.695L90.0566 99.6958L94.1226 96.7381Z" fill="white"/>
<path d="M85.0622 100.147L88.4803 107.051L87.2328 107.669L83.8147 100.764L85.0622 100.147ZM90.5369 105.39L91.1012 106.53L85.2294 109.437L84.6651 108.297L90.5369 105.39Z" fill="white"/>
<path d="M80.4996 102.25L83.002 110.269L81.6732 110.684L79.1708 102.665L80.4996 102.25ZM79.4457 102.579L79.8247 103.794L75.907 105.016L75.5281 103.802L79.4457 102.579ZM80.5325 106.062L80.9043 107.253L77.4448 108.333L77.073 107.141L80.5325 106.062ZM81.5692 109.384L81.9481 110.598L78.0648 111.81L77.6859 110.596L81.5692 109.384Z" fill="white"/>
<path d="M67.8486 108.397L69.159 108.71L66.7847 113.408L65.193 113.525L67.8486 108.397ZM68.9461 104.827L69.2414 108.848L67.8531 108.95L67.5578 104.929L68.9461 104.827ZM69.165 108.3L72.5412 112.986L70.9495 113.103L67.9144 108.801L69.165 108.3Z" fill="white"/>
<path d="M59.8418 104.564C60.6682 104.66 61.3781 104.928 61.9714 105.367C62.5646 105.807 63.0062 106.373 63.2961 107.067C63.578 107.76 63.67 108.528 63.5722 109.371C63.4743 110.213 63.2092 110.935 62.7769 111.537C62.3356 112.146 61.7799 112.597 61.1097 112.89C60.4385 113.191 59.6937 113.293 58.8752 113.198C58.0487 113.102 57.3433 112.831 56.7589 112.385C56.1657 111.945 55.732 111.379 55.4581 110.687C55.1752 110.002 55.0827 109.238 55.1806 108.396C55.2784 107.554 55.544 106.827 55.9773 106.217C56.4026 105.606 56.9504 105.154 57.6206 104.862C58.2829 104.568 59.0233 104.469 59.8418 104.564ZM59.695 105.828C59.1547 105.765 58.6626 105.841 58.219 106.055C57.7753 106.269 57.4119 106.589 57.1289 107.015C56.8369 107.449 56.6563 107.963 56.5871 108.559C56.5188 109.147 56.5771 109.686 56.762 110.174C56.9468 110.663 57.2351 111.059 57.6267 111.362C58.0095 111.672 58.475 111.859 59.0233 111.923C59.5637 111.986 60.0597 111.91 60.5113 111.697C60.9541 111.491 61.3254 111.171 61.6253 110.739C61.9163 110.314 62.0964 109.803 62.1656 109.207C62.2348 108.611 62.177 108.069 61.9922 107.58C61.7984 107.099 61.5062 106.702 61.1155 106.391C60.7168 106.079 60.2434 105.891 59.695 105.828Z" fill="white"/>
<path d="M51.5027 102.736C52.1343 102.941 52.649 103.247 53.0469 103.654C53.4347 104.066 53.6865 104.547 53.8022 105.097C53.9103 105.645 53.8643 106.228 53.6642 106.844L52.3402 106.414C52.4612 106.042 52.4913 105.69 52.4305 105.359C52.3596 105.033 52.2093 104.744 51.9796 104.493C51.7475 104.25 51.4488 104.069 51.0835 103.95C50.7107 103.829 50.3588 103.799 50.0279 103.86C49.6869 103.926 49.3958 104.071 49.1547 104.296C48.9112 104.528 48.7289 104.83 48.6079 105.203L47.2838 104.773C47.4839 104.157 47.7924 103.66 48.2093 103.282C48.6187 102.902 49.1089 102.662 49.6798 102.561C50.2407 102.465 50.8483 102.524 51.5027 102.736ZM53.6642 106.844L52.0195 111.912L50.6955 111.482L52.3402 106.414L53.6642 106.844ZM48.6079 105.203L46.9632 110.271L45.6391 109.841L47.2838 104.773L48.6079 105.203Z" fill="white"/>
<path d="M44.0872 103.271L43.4795 104.402L41.9255 103.567C41.6859 103.438 41.4461 103.378 41.2061 103.385C40.959 103.388 40.7299 103.452 40.5187 103.574C40.3004 103.693 40.1288 103.869 40.0039 104.101C39.8146 104.454 39.7862 104.811 39.9187 105.173C40.0513 105.534 40.3184 105.823 40.7201 106.039L42.1789 106.823L41.5769 107.943L40.0701 107.147C39.5589 106.882 39.1644 106.543 38.8866 106.13C38.605 105.725 38.4497 105.287 38.4205 104.817C38.3914 104.347 38.4999 103.884 38.746 103.425C38.9921 102.967 39.3261 102.625 39.7479 102.397C40.1628 102.166 40.6259 102.056 41.1374 102.068C41.6451 102.086 42.1527 102.232 42.6601 102.504L44.0872 103.271ZM46.6624 101.14L42.6868 108.54L41.4606 107.881L45.4362 100.481L46.6624 101.14ZM42.5609 98.9364L42.6816 102.87L41.3781 103.014L41.1761 98.1924L42.5609 98.9364Z" fill="white"/>
<path d="M38.0471 95.9042L32.5776 102.28L31.5211 101.373L36.9906 94.9978L38.0471 95.9042ZM37.3094 95.2713L36.4811 96.2367L33.2752 93.4863L34.1035 92.5209L37.3094 95.2713Z" fill="white"/>
<path d="M33.0852 91.3622L26.9129 97.0598L25.9688 96.037L32.1411 90.3394L33.0852 91.3622Z" fill="white"/>
<path d="M27.4561 84.1573L24.3373 93.0824L23.0717 92.5991L26.1775 83.6975L27.4561 84.1573ZM30.8058 89.019L23.8887 93.7849L23.0717 92.5991L24.0871 91.9578L30.016 87.8728L30.8058 89.019ZM27.4561 84.1573L20.539 88.9232L19.7492 87.7769L26.6663 83.011L27.4561 84.1573Z" fill="white"/>
<path d="M23.2678 81.5907L21.9077 82.4917L16.2459 80.4756L15.5249 78.8394L23.2678 81.5907ZM25.8344 81.4038L18.1477 84.7912L17.596 83.5393L25.2828 80.152L25.8344 81.4038ZM23.8456 76.8906L21.3009 81.71L20.1245 81.1531L23.1536 75.3203L23.8456 76.8906Z" fill="white"/>
<circle cx="111.051" cy="62.2178" r="2" fill="white"/>
<circle cx="19.0514" cy="62.2178" r="2" fill="white"/>
</svg>
