<svg width="20" height="16" viewBox="0 0 20 16" fill="none" xmlns="http://www.w3.org/2000/svg">
    <g clip-path="url(#n5qhbr0zsa)">
        <path d="M17.682 4.023c.012.17.012.34.012.512 0 5.234-3.984 11.27-11.27 11.27v-.003a11.214 11.214 0 0 1-6.071-1.776 7.953 7.953 0 0 0 5.862-1.642 3.966 3.966 0 0 1-3.7-2.75 3.948 3.948 0 0 0 1.788-.069 3.961 3.961 0 0 1-3.177-3.882v-.05c.55.307 1.167.477 1.797.496A3.966 3.966 0 0 1 1.697.84 11.242 11.242 0 0 0 9.86 4.978a3.963 3.963 0 0 1 6.75-3.613 7.947 7.947 0 0 0 2.515-.961 3.976 3.976 0 0 1-1.74 2.19 7.877 7.877 0 0 0 2.274-.623 8.045 8.045 0 0 1-1.977 2.052z" fill="#fff"/>
    </g>
    <defs>
        <clipPath id="n5qhbr0zsa">
            <path fill="#fff" transform="translate(.275)" d="M0 0h19.451v16H0z"/>
        </clipPath>
    </defs>
</svg>
